<svg width="30" height="24" viewBox="0 0 30 24" fill="none" xmlns="http://www.w3.org/2000/svg">
<path d="M29.5982 2.41071H0.401786C0.295226 2.41071 0.19303 2.36838 0.11768 2.29303C0.0423309 2.21768 0 2.11549 0 2.00893L0 0.401786C0 0.295226 0.0423309 0.19303 0.11768 0.117681C0.19303 0.0423311 0.295226 0 0.401786 0H29.5982C29.7048 0 29.807 0.0423311 29.8823 0.117681C29.9577 0.19303 30 0.295226 30 0.401786V2.00893C30 2.11549 29.9577 2.21768 29.8823 2.29303C29.807 2.36838 29.7048 2.41071 29.5982 2.41071ZM29.5982 13.125H0.401786C0.295226 13.125 0.19303 13.0827 0.11768 13.0073C0.0423309 12.932 0 12.8298 0 12.7232L0 11.1161C0 11.0095 0.0423309 10.9073 0.11768 10.832C0.19303 10.7566 0.295226 10.7143 0.401786 10.7143H29.5982C29.7048 10.7143 29.807 10.7566 29.8823 10.832C29.9577 10.9073 30 11.0095 30 11.1161V12.7232C30 12.8298 29.9577 12.932 29.8823 13.0073C29.807 13.0827 29.7048 13.125 29.5982 13.125ZM29.5982 23.8393H0.401786C0.295226 23.8393 0.19303 23.797 0.11768 23.7216C0.0423309 23.6463 0 23.5441 0 23.4375L0 21.8304C0 21.7238 0.0423309 21.6216 0.11768 21.5463C0.19303 21.4709 0.295226 21.4286 0.401786 21.4286H29.5982C29.7048 21.4286 29.807 21.4709 29.8823 21.5463C29.9577 21.6216 30 21.7238 30 21.8304V23.4375C30 23.5441 29.9577 23.6463 29.8823 23.7216C29.807 23.797 29.7048 23.8393 29.5982 23.8393Z" fill="black"/>
</svg>
