<svg width="23" height="22" viewBox="0 0 23 22" fill="none" xmlns="http://www.w3.org/2000/svg">
<g clip-path="url(#clip0)">
<path opacity="0.4" d="M22.6667 12.375V15.125H0.666687V12.375C0.666687 11.6457 0.956418 10.9462 1.47214 10.4305C1.98787 9.91473 2.68734 9.625 3.41669 9.625H19.9167C20.646 9.625 21.3455 9.91473 21.8612 10.4305C22.377 10.9462 22.6667 11.6457 22.6667 12.375Z" fill="#5EB701"/>
<path d="M0.666687 15.125V19.9375C0.666687 20.1198 0.73912 20.2947 0.868051 20.4236C0.996982 20.5526 1.17185 20.625 1.35419 20.625H2.72919C2.91152 20.625 3.08639 20.5526 3.21532 20.4236C3.34425 20.2947 3.41669 20.1198 3.41669 19.9375V17.875H19.9167V19.9375C19.9167 20.1198 19.9891 20.2947 20.118 20.4236C20.247 20.5526 20.4219 20.625 20.6042 20.625H21.9792C22.1615 20.625 22.3364 20.5526 22.4653 20.4236C22.5943 20.2947 22.6667 20.1198 22.6667 19.9375V15.125H0.666687ZM3.41669 9.625V6.875C3.41669 6.51033 3.56155 6.16059 3.81942 5.90273C4.07728 5.64487 4.42701 5.5 4.79169 5.5H9.60419C9.96886 5.5 10.3186 5.64487 10.5765 5.90273C10.8343 6.16059 10.9792 6.51033 10.9792 6.875V9.625H12.3542V6.875C12.3542 6.51033 12.4991 6.16059 12.7569 5.90273C13.0148 5.64487 13.3645 5.5 13.7292 5.5H18.5417C18.9064 5.5 19.2561 5.64487 19.514 5.90273C19.7718 6.16059 19.9167 6.51033 19.9167 6.875V9.625C20.3999 9.63367 20.8731 9.76496 21.2917 10.0066V2.75C21.2917 2.38533 21.1468 2.03559 20.889 1.77773C20.6311 1.51987 20.2814 1.375 19.9167 1.375H3.41669C3.05201 1.375 2.70228 1.51987 2.44442 1.77773C2.18655 2.03559 2.04169 2.38533 2.04169 2.75V10.0066C2.46038 9.76515 2.93346 9.63387 3.41669 9.625Z" fill="#98B117"/>
</g>
<defs>
<clipPath id="clip0">
<rect width="22" height="22" fill="white" transform="translate(0.666687)"/>
</clipPath>
</defs>
</svg>
