<svg width="25" height="25" viewBox="0 0 25 25" fill="none" xmlns="http://www.w3.org/2000/svg">
<path d="M15.1516 12.5L23.1641 4.4875L24.8164 2.83516C25.0602 2.59141 25.0602 2.19531 24.8164 1.95156L23.0484 0.183594C22.8047 -0.0601561 22.4086 -0.0601561 22.1648 0.183594L12.5 9.84843L2.83516 0.182812C2.59141 -0.0609375 2.19531 -0.0609375 1.95156 0.182812L0.182812 1.95078C-0.0609375 2.19453 -0.0609375 2.59062 0.182812 2.83437L9.84844 12.5L0.182812 22.1648C-0.0609375 22.4086 -0.0609375 22.8047 0.182812 23.0484L1.95078 24.8164C2.19453 25.0601 2.59062 25.0601 2.83437 24.8164L12.5 15.1516L20.5125 23.1641L22.1648 24.8164C22.4086 25.0601 22.8047 25.0601 23.0484 24.8164L24.8164 23.0484C25.0602 22.8047 25.0602 22.4086 24.8164 22.1648L15.1516 12.5Z" fill="#98B117"/>
</svg>
