<svg width="175" height="180" viewBox="0 0 175 180" fill="none" xmlns="http://www.w3.org/2000/svg">
<g clip-path="url(#clip0)">
<path opacity="0.4" d="M87.5947 2.8125C39.5481 2.8125 0.619873 41.8359 0.619873 90C0.619873 138.164 39.5481 177.188 87.5947 177.188C135.641 177.188 174.569 138.164 174.569 90C174.569 41.8359 135.641 2.8125 87.5947 2.8125ZM87.5947 36.5625C93.6986 36.5625 99.6655 38.377 104.741 41.7764C109.816 45.1759 113.772 50.0076 116.107 55.6607C118.443 61.3138 119.055 67.5343 117.864 73.5356C116.673 79.5369 113.734 85.0494 109.417 89.3761C105.101 93.7028 99.6022 96.6493 93.6155 97.843C87.6289 99.0368 81.4236 98.4241 75.7843 96.0825C70.145 93.7409 65.325 89.7756 61.9338 84.688C58.5427 79.6003 56.7326 73.6189 56.7326 67.5C56.7326 59.2949 59.9842 51.4258 65.7719 45.6239C71.5597 39.822 79.4096 36.5625 87.5947 36.5625ZM87.5947 157.5C77.8055 157.496 68.1354 155.348 59.2608 151.207C50.3861 147.065 42.5213 141.03 36.2164 133.523C42.8097 121.078 55.7156 112.5 70.7608 112.5C71.6052 112.507 72.444 112.637 73.2508 112.887C82.5412 116.121 92.6481 116.121 101.938 112.887C102.745 112.637 103.584 112.507 104.428 112.5C119.474 112.5 132.38 121.078 138.973 133.523C132.668 141.03 124.803 147.065 115.929 151.207C107.054 155.348 97.3838 157.496 87.5947 157.5Z" fill="#FFE596"/>
<path d="M87.5947 98.4375C93.6986 98.4375 99.6655 96.6231 104.741 93.2236C109.816 89.8242 113.772 84.9924 116.107 79.3393C118.443 73.6862 119.055 67.4657 117.864 61.4644C116.673 55.4631 113.734 49.9506 109.417 45.6239C105.101 41.2972 99.6022 38.3507 93.6156 37.157C87.6289 35.9632 81.4236 36.5759 75.7843 38.9175C70.145 41.2591 65.325 45.2244 61.9339 50.3121C58.5427 55.3997 56.7327 61.3812 56.7327 67.5C56.7327 75.7052 59.9842 83.5742 65.7719 89.3761C71.5597 95.178 79.4096 98.4375 87.5947 98.4375ZM104.429 112.5C103.584 112.507 102.745 112.637 101.939 112.887C92.6481 116.121 82.5413 116.121 73.2509 112.887C72.444 112.637 71.6052 112.507 70.7609 112.5C55.7156 112.5 42.8097 121.078 36.2164 133.523C60.0889 161.968 102.444 165.628 130.819 141.697C133.765 139.211 136.493 136.477 138.973 133.523C132.38 121.078 119.474 112.5 104.429 112.5Z" fill="#FFE596"/>
</g>
<defs>
<clipPath id="clip0">
<rect width="173.95" height="180" fill="white" transform="translate(0.619873)"/>
</clipPath>
</defs>
</svg>
