<svg width="169" height="31" viewBox="0 0 169 31" fill="none" xmlns="http://www.w3.org/2000/svg">
<g clip-path="url(#clip0)">
<path d="M15.5601 1.04371L11.6867 8.80152L3.02046 10.0496C1.46635 10.2722 0.84352 12.1648 1.97055 13.2488L8.24037 19.2839L6.75744 27.8093C6.49051 29.3504 8.1336 30.5046 9.50975 29.7839L17.2625 25.7586L25.0153 29.7839C26.3914 30.4988 28.0345 29.3504 27.7676 27.8093L26.2846 19.2839L32.5545 13.2488C33.6815 12.1648 33.0587 10.2722 31.5045 10.0496L22.8383 8.80152L18.9649 1.04371C18.2709 -0.339101 16.26 -0.356679 15.5601 1.04371Z" fill="#FFDD73"/>
</g>
<g clip-path="url(#clip1)">
<path d="M49.2948 1.04371L45.4214 8.80152L36.7552 10.0496C35.2011 10.2722 34.5783 12.1648 35.7053 13.2488L41.9751 19.2839L40.4922 27.8093C40.2253 29.3504 41.8683 30.5046 43.2445 29.7839L50.9972 25.7586L58.75 29.7839C60.1262 30.4988 61.7692 29.3504 61.5023 27.8093L60.0194 19.2839L66.2892 13.2488C67.4162 12.1648 66.7934 10.2722 65.2393 10.0496L56.5731 8.80152L52.6996 1.04371C52.0056 -0.339101 49.9948 -0.356679 49.2948 1.04371Z" fill="#FFDD73"/>
</g>
<g clip-path="url(#clip2)">
<path d="M83.0296 1.04371L79.1562 8.80152L70.4899 10.0496C68.9358 10.2722 68.313 12.1648 69.44 13.2488L75.7098 19.2839L74.2269 27.8093C73.96 29.3504 75.6031 30.5046 76.9792 29.7839L84.732 25.7586L92.4847 29.7839C93.8609 30.4988 95.504 29.3504 95.2371 27.8093L93.7541 19.2839L100.024 13.2488C101.151 12.1648 100.528 10.2722 98.974 10.0496L90.3078 8.80152L86.4344 1.04371C85.7404 -0.339101 83.7295 -0.356679 83.0296 1.04371Z" fill="#FFDD73"/>
</g>
<g clip-path="url(#clip3)">
<path d="M116.764 1.04371L112.891 8.80152L104.225 10.0496C102.671 10.2722 102.048 12.1648 103.175 13.2488L109.445 19.2839L107.962 27.8093C107.695 29.3504 109.338 30.5046 110.714 29.7839L118.467 25.7586L126.219 29.7839C127.596 30.4988 129.239 29.3504 128.972 27.8093L127.489 19.2839L133.759 13.2488C134.886 12.1648 134.263 10.2722 132.709 10.0496L124.043 8.80152L120.169 1.04371C119.475 -0.339101 117.464 -0.356679 116.764 1.04371Z" fill="#FFDD73"/>
</g>
<g clip-path="url(#clip4)">
<rect width="33.4601" height="30.0037" transform="translate(135.334)" fill="white"/>
<path d="M166.183 10.0496L157.592 8.80152L153.752 1.04371C153.064 -0.339101 151.07 -0.356679 150.376 1.04371L146.537 8.80152L137.945 10.0496C136.405 10.2722 135.787 12.1648 136.905 13.2488L143.12 19.2839L141.65 27.8093C141.385 29.3504 143.014 30.5046 144.378 29.7839L152.064 25.7586L159.75 29.7839C161.114 30.4988 162.743 29.3504 162.478 27.8093L161.008 19.2839L167.224 13.2488C168.341 12.1648 167.724 10.2722 166.183 10.0496ZM158.991 18.6277L160.626 28.1199L152.064 23.6433L143.508 28.1257L145.143 18.6336L138.216 11.9011L147.783 10.5183L152.064 1.87574L156.345 10.5183L165.912 11.9011L158.991 18.6277Z" fill="#FFDD73"/>
</g>
<defs>
<clipPath id="clip0">
<rect width="33.7347" height="30.0037" fill="white" transform="translate(0.395142)"/>
</clipPath>
<clipPath id="clip1">
<rect width="33.7347" height="30.0037" fill="white" transform="translate(34.1299)"/>
</clipPath>
<clipPath id="clip2">
<rect width="33.7347" height="30.0037" fill="white" transform="translate(67.8646)"/>
</clipPath>
<clipPath id="clip3">
<rect width="33.7347" height="30.0037" fill="white" transform="translate(101.599)"/>
</clipPath>
<clipPath id="clip4">
<rect width="33.4601" height="30.0037" fill="white" transform="translate(135.334)"/>
</clipPath>
</defs>
</svg>
