<svg width="19" height="19" viewBox="0 0 19 19" fill="none" xmlns="http://www.w3.org/2000/svg">
<path d="M18.2983 13.0362L14.276 11.3106C14.0448 11.212 13.788 11.1909 13.5438 11.2505C13.2997 11.31 13.0813 11.447 12.9215 11.6409L11.285 13.6411C8.71089 12.3751 6.62833 10.2925 5.36231 7.71843L7.36251 6.08191C7.5564 5.92212 7.69335 5.70387 7.75288 5.45978C7.81241 5.2157 7.79133 4.95889 7.69278 4.72779L5.9672 0.701419C5.8593 0.451741 5.66727 0.247797 5.42453 0.125073C5.1818 0.00234944 4.90372 -0.0313851 4.63868 0.0297396L0.898055 0.894388C0.642361 0.95222 0.414031 1.09551 0.25076 1.30062C0.0874885 1.50572 -0.000962795 1.76036 7.90524e-06 2.02251C7.90524e-06 11.4219 7.61856 18.9997 16.9772 18.9997C17.2402 19.0002 17.4956 18.9112 17.7014 18.7473C17.9071 18.5834 18.051 18.3544 18.1094 18.0979L18.97 14.361C19.031 14.0965 18.9972 13.8189 18.8744 13.5768C18.7517 13.3346 18.5477 13.1433 18.2983 13.0362ZM16.9549 17.8122C8.25313 17.801 1.19864 10.7503 1.19122 2.04849L4.88731 1.19497L6.59434 5.18015L3.89278 7.38816C5.68888 11.2178 7.77071 13.3071 11.6152 15.1106L13.8233 12.4091L17.8084 14.1161L16.9549 17.8122Z" fill="#98B117"/>
</svg>
