<svg width="17" height="23" viewBox="0 0 17 23" fill="none" xmlns="http://www.w3.org/2000/svg">
<path d="M8.03878 22.0887C6.87936 20.3956 5.89346 18.9809 5.05537 17.7783C3.55676 15.6279 2.53076 14.1557 1.83036 12.9825C1.29056 12.0784 0.962829 11.3811 0.766766 10.7142C0.57181 10.0511 0.5 9.39408 0.5 8.56205C0.5 4.10605 4.08513 0.5 8.5 0.5C12.9149 0.5 16.5 4.10605 16.5 8.56205C16.5 9.39408 16.4282 10.0511 16.2332 10.7142C16.0372 11.3811 15.7094 12.0784 15.1696 12.9825C14.4692 14.1557 13.4432 15.6279 11.9446 17.7783C11.1066 18.9808 10.1208 20.3954 8.96148 22.0883C8.73812 22.4133 8.26231 22.4134 8.03878 22.0887ZM8.5 12.6296C10.7356 12.6296 12.5417 10.805 12.5417 8.56205C12.5417 6.31904 10.7356 4.49453 8.5 4.49453C6.26442 4.49453 4.45833 6.31904 4.45833 8.56205C4.45833 10.805 6.26442 12.6296 8.5 12.6296Z" stroke="#98B117"/>
</svg>
