<svg width="20" height="19" viewBox="0 0 20 19" fill="none" xmlns="http://www.w3.org/2000/svg">
<path d="M9.50424 4.62864C6.80782 4.62864 4.63288 6.80358 4.63288 9.5C4.63288 12.1964 6.80782 14.3714 9.50424 14.3714C12.2007 14.3714 14.3756 12.1964 14.3756 9.5C14.3756 6.80358 12.2007 4.62864 9.50424 4.62864ZM9.50424 12.667C7.76174 12.667 6.33722 11.2467 6.33722 9.5C6.33722 7.75326 7.7575 6.33298 9.50424 6.33298C11.251 6.33298 12.6713 7.75326 12.6713 9.5C12.6713 11.2467 11.2467 12.667 9.50424 12.667ZM15.7111 4.42938C15.7111 5.06108 15.2023 5.5656 14.5749 5.5656C13.9432 5.5656 13.4386 5.05684 13.4386 4.42938C13.4386 3.80191 13.9474 3.29315 14.5749 3.29315C15.2023 3.29315 15.7111 3.80191 15.7111 4.42938ZM18.9375 5.58256C18.8654 4.06053 18.5177 2.71232 17.4027 1.60153C16.2919 0.49074 14.9437 0.143088 13.4217 0.0667745C11.853 -0.0222582 7.15123 -0.0222582 5.58256 0.0667745C4.06477 0.138849 2.71656 0.4865 1.60153 1.59729C0.4865 2.70808 0.143088 4.05629 0.0667745 5.57832C-0.0222582 7.14699 -0.0222582 11.8488 0.0667745 13.4174C0.138849 14.9395 0.4865 16.2877 1.60153 17.3985C2.71656 18.5093 4.06053 18.8569 5.58256 18.9332C7.15123 19.0223 11.853 19.0223 13.4217 18.9332C14.9437 18.8612 16.2919 18.5135 17.4027 17.3985C18.5135 16.2877 18.8612 14.9395 18.9375 13.4174C19.0265 11.8488 19.0265 7.15123 18.9375 5.58256ZM16.9109 15.1006C16.5802 15.9316 15.94 16.5717 15.1048 16.9067C13.8541 17.4027 10.8864 17.2882 9.50424 17.2882C8.12211 17.2882 5.15012 17.3985 3.90366 16.9067C3.07269 16.576 2.4325 15.9358 2.09757 15.1006C1.60153 13.8499 1.716 10.8821 1.716 9.5C1.716 8.11787 1.60577 5.14588 2.09757 3.89942C2.42826 3.06845 3.06845 2.42826 3.90366 2.09333C5.15436 1.59729 8.12211 1.71176 9.50424 1.71176C10.8864 1.71176 13.8584 1.60153 15.1048 2.09333C15.9358 2.42402 16.576 3.06421 16.9109 3.89942C17.4069 5.15012 17.2925 8.11787 17.2925 9.5C17.2925 10.8821 17.4069 13.8541 16.9109 15.1006Z" fill="url(#paint0_linear)"/>
<defs>
<linearGradient id="paint0_linear" x1="16.4973" y1="3.47312" x2="-4.37667e-07" y2="19.1022" gradientUnits="userSpaceOnUse">
<stop stop-color="#405DE6"/>
<stop offset="0.0989583" stop-color="#5851DB"/>
<stop offset="0.192708" stop-color="#833AB4"/>
<stop offset="0.317708" stop-color="#C13584"/>
<stop offset="0.442708" stop-color="#E1306C"/>
<stop offset="0.572917" stop-color="#FD1D1D"/>
<stop offset="0.692708" stop-color="#F56040"/>
<stop offset="0.807292" stop-color="#F77737"/>
<stop offset="0.927083" stop-color="#FCAF45"/>
<stop offset="1" stop-color="#FFDC80"/>
</linearGradient>
</defs>
</svg>
