<svg width="19" height="15" viewBox="0 0 19 15" fill="none" xmlns="http://www.w3.org/2000/svg">
<path d="M17.2188 0.375H1.78125C0.797852 0.375 0 1.17285 0 2.15625V12.8438C0 13.8271 0.797852 14.625 1.78125 14.625H17.2188C18.2021 14.625 19 13.8271 19 12.8438V2.15625C19 1.17285 18.2021 0.375 17.2188 0.375ZM1.78125 1.5625H17.2188C17.5453 1.5625 17.8125 1.82969 17.8125 2.15625V3.69258C16.9998 4.3791 15.8383 5.32539 12.2238 8.19395C11.5967 8.69121 10.3609 9.88984 9.5 9.875C8.63906 9.88984 7.39961 8.69121 6.77617 8.19395C3.16172 5.32539 2.0002 4.3791 1.1875 3.69258V2.15625C1.1875 1.82969 1.45469 1.5625 1.78125 1.5625ZM17.2188 13.4375H1.78125C1.45469 13.4375 1.1875 13.1703 1.1875 12.8438V5.23633C2.03359 5.93027 3.36953 7.00273 6.0377 9.12168C6.79844 9.73027 8.1418 11.0699 9.5 11.0625C10.8508 11.0736 12.183 9.74512 12.9623 9.12168C15.6305 7.00273 16.9664 5.93027 17.8125 5.23633V12.8438C17.8125 13.1703 17.5453 13.4375 17.2188 13.4375Z" fill="#98B117"/>
</svg>
