<svg width="28" height="22" viewBox="0 0 28 22" fill="none" xmlns="http://www.w3.org/2000/svg">
<path d="M17.5 12.375C18.2731 12.375 18.9 11.7593 18.9 11C18.9 10.2407 18.2731 9.625 17.5 9.625C16.7269 9.625 16.1 10.2407 16.1 11C16.1 11.7593 16.7269 12.375 17.5 12.375ZM27.65 20.625H22.4V1.375C22.4 0.615742 21.7731 0 21 0H7C6.22694 0 5.6 0.615742 5.6 1.375V20.625H0.35C0.156625 20.625 0 20.7788 0 20.9688V21.6562C0 21.8462 0.156625 22 0.35 22H27.65C27.8434 22 28 21.8462 28 21.6562V20.9688C28 20.7788 27.8434 20.625 27.65 20.625ZM21 20.625H7V1.375H21V20.625Z" fill="#98B117"/>
</svg>
