<svg width="19" height="19" viewBox="0 0 19 19" fill="none" xmlns="http://www.w3.org/2000/svg">
<g clip-path="url(#clip0)">
<path opacity="0.4" d="M9.51744 13.0625H9.48256C8.36557 13.0625 7.24078 12.1934 6.41955 11.5588C6.28596 11.4557 0.919199 7.52207 0 6.80326V14.8438C0 15.3162 0.187667 15.7692 0.521716 16.1033C0.855765 16.4373 1.30883 16.625 1.78125 16.625H17.2188C17.6912 16.625 18.1442 16.4373 18.4783 16.1033C18.8123 15.7692 19 15.3162 19 14.8438V6.80438C18.0923 7.51576 12.7137 11.4557 12.5801 11.5588C11.7592 12.1934 10.6344 13.0625 9.51744 13.0625ZM17.2188 2.375H1.78125C1.30883 2.375 0.855765 2.56267 0.521716 2.89672C0.187667 3.23077 0 3.68383 0 4.15625L0 4.86133C0.00018133 4.99644 0.0309982 5.12975 0.0901325 5.25123C0.149267 5.37271 0.235179 5.4792 0.341406 5.5627C1.47695 6.44961 1.85176 6.76504 6.77617 10.3387C7.39961 10.7914 8.63906 11.8898 9.5 11.875C10.3609 11.8898 11.6004 10.7914 12.2238 10.3387C17.1482 6.76504 17.523 6.45332 18.6586 5.5627C18.7651 5.47949 18.8513 5.37305 18.9104 5.2515C18.9696 5.12996 19.0002 4.99651 19 4.86133V4.15625C19 3.68383 18.8123 3.23077 18.4783 2.89672C18.1442 2.56267 17.6912 2.375 17.2188 2.375Z" fill="#98B117"/>
<path d="M19 4.86133V6.80438C18.0923 7.51576 12.7137 11.4557 12.5801 11.5588C11.7592 12.1934 10.6344 13.0625 9.51744 13.0625H9.48256C8.36557 13.0625 7.24078 12.1934 6.41955 11.5588C6.28596 11.4557 0.919199 7.52207 0 6.80326V4.86133C0.00018133 4.99644 0.0309982 5.12975 0.0901325 5.25123C0.149267 5.37271 0.235179 5.47921 0.341406 5.5627C1.47695 6.44961 1.85176 6.76504 6.77617 10.3387C7.39553 10.7884 8.62236 11.875 9.48256 11.875H9.51744C10.3776 11.875 11.6045 10.7884 12.2238 10.3387C17.1482 6.76504 17.523 6.45332 18.6586 5.5627C18.7651 5.47949 18.8513 5.37305 18.9104 5.2515C18.9696 5.12996 19.0002 4.99651 19 4.86133Z" fill="#98B117"/>
</g>
<defs>
<clipPath id="clip0">
<rect width="19" height="19" fill="white"/>
</clipPath>
</defs>
</svg>
