<svg width="19" height="19" viewBox="0 0 19 19" fill="none" xmlns="http://www.w3.org/2000/svg">
<g clip-path="url(#clip0)">
<path opacity="0.4" d="M7.09457 5.73344C7.24464 5.6118 7.35089 5.44449 7.39717 5.25694C7.44345 5.0694 7.42724 4.87187 7.351 4.69438L5.56975 0.538121C5.48629 0.346788 5.33869 0.190571 5.1524 0.0964073C4.9661 0.00224332 4.75279 -0.0239654 4.54924 0.0223003L3.93359 0.164058L6.52123 6.20139L7.09457 5.73344ZM12.7946 12.4732L18.8363 15.0624L18.9774 14.4504C19.0234 14.2459 18.9967 14.0317 18.9019 13.8447C18.807 13.6577 18.65 13.5096 18.4578 13.4258L14.3016 11.6446C14.124 11.569 13.9266 11.5531 13.7392 11.5993C13.5518 11.6456 13.3845 11.7515 13.2625 11.901L12.7946 12.4732ZM4.58837e-08 1.78092C4.58837e-08 11.2995 7.71504 18.9997 17.2188 18.9997C17.4202 18.9998 17.6157 18.9317 17.7734 18.8064C17.9311 18.6811 18.0417 18.5061 18.0871 18.3098L18.5654 16.2384L12.0116 13.4296L11.4223 14.1495C8.53311 12.7877 6.20804 10.4628 4.84611 7.57369L5.56641 6.98477L2.75871 0.435328L0.689863 0.912926C0.493686 0.958316 0.31868 1.06884 0.193393 1.22648C0.0681069 1.38412 -6.45642e-05 1.57956 4.58837e-08 1.78092Z" fill="#5EB701"/>
<path d="M2.75879 0.435332L5.56648 6.98477L6.52354 6.20139L3.93367 0.164062L2.75879 0.435332ZM12.7946 12.4732L12.0116 13.4296L18.5652 16.2384L18.8364 15.0624L12.7946 12.4732Z" fill="#98B117"/>
</g>
<defs>
<clipPath id="clip0">
<rect width="19" height="19" fill="white"/>
</clipPath>
</defs>
</svg>
