<svg width="19" height="19" viewBox="0 0 19 19" fill="none" xmlns="http://www.w3.org/2000/svg">
<g clip-path="url(#clip0)">
<path opacity="0.4" d="M0 7.125V17.2188C0 17.6912 0.214476 18.1442 0.596247 18.4783C0.978017 18.8123 1.49581 19 2.03571 19H16.9643C17.5042 19 18.022 18.8123 18.4038 18.4783C18.7855 18.1442 19 17.6912 19 17.2188V7.125H0ZM5.42857 16.1797C5.42857 16.2978 5.37495 16.4111 5.27951 16.4946C5.18407 16.5781 5.05462 16.625 4.91964 16.625H3.22321C3.08824 16.625 2.95879 16.5781 2.86335 16.4946C2.7679 16.4111 2.71429 16.2978 2.71429 16.1797V14.6953C2.71429 14.5772 2.7679 14.4639 2.86335 14.3804C2.95879 14.2969 3.08824 14.25 3.22321 14.25H4.91964C5.05462 14.25 5.18407 14.2969 5.27951 14.3804C5.37495 14.4639 5.42857 14.5772 5.42857 14.6953V16.1797ZM5.42857 11.4297C5.42857 11.5478 5.37495 11.6611 5.27951 11.7446C5.18407 11.8281 5.05462 11.875 4.91964 11.875H3.22321C3.08824 11.875 2.95879 11.8281 2.86335 11.7446C2.7679 11.6611 2.71429 11.5478 2.71429 11.4297V9.94531C2.71429 9.82721 2.7679 9.71394 2.86335 9.63043C2.95879 9.54692 3.08824 9.5 3.22321 9.5H4.91964C5.05462 9.5 5.18407 9.54692 5.27951 9.63043C5.37495 9.71394 5.42857 9.82721 5.42857 9.94531V11.4297ZM10.8571 16.1797C10.8571 16.2978 10.8035 16.4111 10.7081 16.4946C10.6126 16.5781 10.4832 16.625 10.3482 16.625H8.65179C8.51681 16.625 8.38736 16.5781 8.29192 16.4946C8.19648 16.4111 8.14286 16.2978 8.14286 16.1797V14.6953C8.14286 14.5772 8.19648 14.4639 8.29192 14.3804C8.38736 14.2969 8.51681 14.25 8.65179 14.25H10.3482C10.4832 14.25 10.6126 14.2969 10.7081 14.3804C10.8035 14.4639 10.8571 14.5772 10.8571 14.6953V16.1797ZM10.8571 11.4297C10.8571 11.5478 10.8035 11.6611 10.7081 11.7446C10.6126 11.8281 10.4832 11.875 10.3482 11.875H8.65179C8.51681 11.875 8.38736 11.8281 8.29192 11.7446C8.19648 11.6611 8.14286 11.5478 8.14286 11.4297V9.94531C8.14286 9.82721 8.19648 9.71394 8.29192 9.63043C8.38736 9.54692 8.51681 9.5 8.65179 9.5H10.3482C10.4832 9.5 10.6126 9.54692 10.7081 9.63043C10.8035 9.71394 10.8571 9.82721 10.8571 9.94531V11.4297ZM16.2857 16.1797C16.2857 16.2978 16.2321 16.4111 16.1367 16.4946C16.0412 16.5781 15.9118 16.625 15.7768 16.625H14.0804C13.9454 16.625 13.8159 16.5781 13.7205 16.4946C13.625 16.4111 13.5714 16.2978 13.5714 16.1797V14.6953C13.5714 14.5772 13.625 14.4639 13.7205 14.3804C13.8159 14.2969 13.9454 14.25 14.0804 14.25H15.7768C15.9118 14.25 16.0412 14.2969 16.1367 14.3804C16.2321 14.4639 16.2857 14.5772 16.2857 14.6953V16.1797ZM16.2857 11.4297C16.2857 11.5478 16.2321 11.6611 16.1367 11.7446C16.0412 11.8281 15.9118 11.875 15.7768 11.875H14.0804C13.9454 11.875 13.8159 11.8281 13.7205 11.7446C13.625 11.6611 13.5714 11.5478 13.5714 11.4297V9.94531C13.5714 9.82721 13.625 9.71394 13.7205 9.63043C13.8159 9.54692 13.9454 9.5 14.0804 9.5H15.7768C15.9118 9.5 16.0412 9.54692 16.1367 9.63043C16.2321 9.71394 16.2857 9.82721 16.2857 9.94531V11.4297ZM12.8929 4.75H14.25C14.43 4.75 14.6026 4.68744 14.7298 4.57609C14.8571 4.46475 14.9286 4.31372 14.9286 4.15625V0.59375C14.9286 0.436278 14.8571 0.285255 14.7298 0.173905C14.6026 0.0625556 14.43 0 14.25 0L12.8929 0C12.7129 0 12.5403 0.0625556 12.413 0.173905C12.2858 0.285255 12.2143 0.436278 12.2143 0.59375V4.15625C12.2143 4.31372 12.2858 4.46475 12.413 4.57609C12.5403 4.68744 12.7129 4.75 12.8929 4.75ZM4.75 4.75H6.10714C6.28711 4.75 6.45971 4.68744 6.58697 4.57609C6.71422 4.46475 6.78571 4.31372 6.78571 4.15625V0.59375C6.78571 0.436278 6.71422 0.285255 6.58697 0.173905C6.45971 0.0625556 6.28711 0 6.10714 0L4.75 0C4.57003 0 4.39743 0.0625556 4.27018 0.173905C4.14292 0.285255 4.07143 0.436278 4.07143 0.59375V4.15625C4.07143 4.31372 4.14292 4.46475 4.27018 4.57609C4.39743 4.68744 4.57003 4.75 4.75 4.75Z" fill="#98B117"/>
<path d="M19 4.15625V7.125H0V4.15625C0 3.68383 0.214476 3.23077 0.596247 2.89672C0.978017 2.56267 1.49581 2.375 2.03571 2.375H4.07143V4.15625C4.07143 4.31372 4.14292 4.46474 4.27018 4.57609C4.39743 4.68744 4.57003 4.75 4.75 4.75H6.10714C6.28711 4.75 6.45971 4.68744 6.58697 4.57609C6.71422 4.46474 6.78571 4.31372 6.78571 4.15625V2.375H12.2143V4.15625C12.2143 4.31372 12.2858 4.46474 12.413 4.57609C12.5403 4.68744 12.7129 4.75 12.8929 4.75H14.25C14.43 4.75 14.6026 4.68744 14.7298 4.57609C14.8571 4.46474 14.9286 4.31372 14.9286 4.15625V2.375H16.9643C17.5042 2.375 18.022 2.56267 18.4038 2.89672C18.7855 3.23077 19 3.68383 19 4.15625Z" fill="#98B117"/>
</g>
<defs>
<clipPath id="clip0">
<rect width="19" height="19" fill="white"/>
</clipPath>
</defs>
</svg>
