<svg width="19" height="19" viewBox="0 0 19 19" fill="none" xmlns="http://www.w3.org/2000/svg">
<g clip-path="url(#clip0)">
<path opacity="0.4" d="M14.8438 5.34375C14.8438 6.40064 14.5303 7.4338 13.9432 8.31258C13.356 9.19135 12.5214 9.87628 11.545 10.2807C10.5685 10.6852 9.49407 10.791 8.45749 10.5848C7.4209 10.3786 6.46874 9.86969 5.7214 9.12235C4.97406 8.37502 4.46512 7.42285 4.25893 6.38626C4.05274 5.34968 4.15857 4.27523 4.56302 3.29879C4.96748 2.32234 5.6524 1.48776 6.53117 0.900584C7.40995 0.313405 8.44311 0 9.5 0C10.9173 0 12.2765 0.563001 13.2786 1.56515C14.2808 2.5673 14.8438 3.9265 14.8438 5.34375Z" fill="#98B117"/>
<path d="M14.25 11.875H12.2053C11.357 12.2661 10.4341 12.4687 9.5 12.4687C8.56593 12.4687 7.64297 12.2661 6.79473 11.875H4.75C3.49022 11.875 2.28204 12.3754 1.39124 13.2662C0.500445 14.157 0 15.3652 0 16.625L0 17.2188C0 17.6912 0.187667 18.1442 0.521716 18.4783C0.855765 18.8123 1.30883 19 1.78125 19H17.2188C17.6912 19 18.1442 18.8123 18.4783 18.4783C18.8123 18.1442 19 17.6912 19 17.2188V16.625C19 15.3652 18.4996 14.157 17.6088 13.2662C16.718 12.3754 15.5098 11.875 14.25 11.875Z" fill="#98B117"/>
</g>
<defs>
<clipPath id="clip0">
<rect width="19" height="19" fill="white"/>
</clipPath>
</defs>
</svg>
