<svg width="23" height="22" viewBox="0 0 23 22" fill="none" xmlns="http://www.w3.org/2000/svg">
<path d="M11.0049 5.35948C7.88274 5.35948 5.36439 7.87783 5.36439 11C5.36439 14.1222 7.88274 16.6405 11.0049 16.6405C14.1271 16.6405 16.6454 14.1222 16.6454 11C16.6454 7.87783 14.1271 5.35948 11.0049 5.35948ZM11.0049 14.6671C8.98728 14.6671 7.33783 13.0225 7.33783 11C7.33783 8.97746 8.98237 7.33292 11.0049 7.33292C13.0274 7.33292 14.672 8.97746 14.672 11C14.672 13.0225 13.0225 14.6671 11.0049 14.6671ZM18.1918 5.12875C18.1918 5.8602 17.6027 6.44438 16.8762 6.44438C16.1447 6.44438 15.5605 5.85529 15.5605 5.12875C15.5605 4.40221 16.1496 3.81312 16.8762 3.81312C17.6027 3.81312 18.1918 4.40221 18.1918 5.12875ZM21.9276 6.46402C21.8441 4.70166 21.4416 3.14058 20.1505 1.8544C18.8643 0.568225 17.3032 0.165681 15.5409 0.0773179C13.7245 -0.0257726 8.28037 -0.0257726 6.46402 0.0773179C4.70657 0.160772 3.14549 0.563316 1.8544 1.84949C0.563316 3.13567 0.165681 4.69675 0.0773179 6.45911C-0.0257726 8.27547 -0.0257726 13.7196 0.0773179 15.536C0.160772 17.2983 0.563316 18.8594 1.8544 20.1456C3.14549 21.4318 4.70166 21.8343 6.46402 21.9227C8.28037 22.0258 13.7245 22.0258 15.5409 21.9227C17.3032 21.8392 18.8643 21.4367 20.1505 20.1456C21.4367 18.8594 21.8392 17.2983 21.9276 15.536C22.0307 13.7196 22.0307 8.28037 21.9276 6.46402ZM19.5811 17.4849C19.1981 18.4471 18.4569 19.1883 17.4898 19.5761C16.0416 20.1505 12.6053 20.018 11.0049 20.018C9.40455 20.018 5.96329 20.1456 4.52003 19.5761C3.55785 19.1932 2.81658 18.452 2.42876 17.4849C1.8544 16.0367 1.98695 12.6004 1.98695 11C1.98695 9.39964 1.85931 5.95838 2.42876 4.51512C2.81167 3.55294 3.55294 2.81167 4.52003 2.42385C5.9682 1.84949 9.40455 1.98204 11.0049 1.98204C12.6053 1.98204 16.0465 1.8544 17.4898 2.42385C18.452 2.80676 19.1932 3.54803 19.5811 4.51512C20.1554 5.96329 20.0229 9.39964 20.0229 11C20.0229 12.6004 20.1554 16.0416 19.5811 17.4849Z" fill="url(#paint0_linear)"/>
<defs>
<linearGradient id="paint0_linear" x1="19.1022" y1="4.02151" x2="-5.06773e-07" y2="22.1183" gradientUnits="userSpaceOnUse">
<stop stop-color="#405DE6"/>
<stop offset="0.0989583" stop-color="#5851DB"/>
<stop offset="0.192708" stop-color="#833AB4"/>
<stop offset="0.317708" stop-color="#C13584"/>
<stop offset="0.442708" stop-color="#E1306C"/>
<stop offset="0.572917" stop-color="#FD1D1D"/>
<stop offset="0.692708" stop-color="#F56040"/>
<stop offset="0.807292" stop-color="#F77737"/>
<stop offset="0.927083" stop-color="#FCAF45"/>
<stop offset="1" stop-color="#FFDC80"/>
</linearGradient>
</defs>
</svg>
