<svg width="23" height="17" viewBox="0 0 23 17" fill="none" xmlns="http://www.w3.org/2000/svg">
<path d="M20.9351 0.454102H3.06006C1.92139 0.454102 0.997559 1.3805 0.997559 2.52234V14.9318C0.997559 16.0736 1.92139 17 3.06006 17H20.9351C22.0737 17 22.9976 16.0736 22.9976 14.9318V2.52234C22.9976 1.3805 22.0737 0.454102 20.9351 0.454102ZM3.06006 1.83293H20.9351C21.3132 1.83293 21.6226 2.14316 21.6226 2.52234V4.30619C20.6815 5.10333 19.3366 6.20208 15.1515 9.5328C14.4253 10.1102 12.9944 11.5019 11.9976 11.4847C11.0007 11.5019 9.56553 10.1102 8.84365 9.5328C4.6585 6.20208 3.31357 5.10333 2.37256 4.30619V2.52234C2.37256 2.14316 2.68193 1.83293 3.06006 1.83293ZM20.9351 15.6212H3.06006C2.68193 15.6212 2.37256 15.3109 2.37256 14.9318V6.09867C3.35225 6.90442 4.89912 8.14967 7.98857 10.61C8.86943 11.3167 10.4249 12.8721 11.9976 12.8635C13.5616 12.8765 15.1042 11.3339 16.0065 10.61C19.096 8.14967 20.6429 6.90442 21.6226 6.09867V14.9318C21.6226 15.3109 21.3132 15.6212 20.9351 15.6212Z" fill="#98B117"/>
</svg>
