<svg width="23" height="30" viewBox="0 0 23 30" fill="none" xmlns="http://www.w3.org/2000/svg">
<path d="M10.505 29.1102C8.97443 26.8914 7.67129 25.035 6.56247 23.4554C4.5756 20.625 3.21261 18.6834 2.28281 17.1373C1.56475 15.9434 1.12395 15.0146 0.859361 14.1211C0.595907 13.2315 0.5 12.3527 0.5 11.25C0.5 5.31292 5.31292 0.5 11.25 0.5C17.1871 0.5 22 5.31292 22 11.25C22 12.3527 21.9041 13.2315 21.6406 14.1211C21.376 15.0146 20.9352 15.9434 20.2172 17.1373C19.2874 18.6834 17.9244 20.625 15.9375 23.4554C14.8287 25.035 13.5256 26.8913 11.9951 29.1101C11.6352 29.6299 10.8648 29.6299 10.505 29.1102ZM11.25 16.4375C14.115 16.4375 16.4375 14.115 16.4375 11.25C16.4375 8.38501 14.115 6.0625 11.25 6.0625C8.38501 6.0625 6.0625 8.38501 6.0625 11.25C6.0625 14.115 8.38501 16.4375 11.25 16.4375Z" stroke="#5EB701"/>
</svg>
