<svg width="17" height="33" viewBox="0 0 17 33" fill="none" xmlns="http://www.w3.org/2000/svg">
<path d="M13.0647 31.7631C12.8839 31.957 12.6427 32.0838 12.3805 32.1229C12.1183 32.162 11.8506 32.1111 11.6211 31.9784C0.791563 25.7259 -2.93386 11.8758 3.32835 1.02936C3.4608 0.799825 3.66715 0.621961 3.91371 0.524799C4.16027 0.427637 4.43248 0.416917 4.68592 0.494386M13.0647 31.7631L16.6186 27.9513M13.0647 31.7631L12.699 31.4222C12.5953 31.5333 12.4571 31.606 12.3068 31.6284C12.1564 31.6508 12.003 31.6216 11.8714 31.5455L11.8711 31.5454C1.28047 25.4309 -2.36264 11.8864 3.76136 1.27936L3.76142 1.27927C3.83736 1.14766 3.95566 1.04569 4.09702 0.989983C4.23836 0.934286 4.3944 0.928132 4.53969 0.972525L4.68592 0.494386M13.0647 31.7631L12.6991 31.4221L16.251 27.6124L16.6186 27.9513M16.6186 27.9513C16.8056 27.7485 16.916 27.4868 16.9309 27.2114C16.9457 26.9359 16.8641 26.6639 16.7 26.4421M16.6186 27.9513L16.2529 27.6103L16.2518 27.6115C16.3594 27.4943 16.423 27.3434 16.4316 27.1844C16.4402 27.0255 16.3932 26.8685 16.2987 26.7404L16.2997 26.7417L16.7 26.4421M16.7 26.4421L13.1358 21.678M16.7 26.4421L16.2981 26.7395L12.7361 21.9784L13.1358 21.678M13.1358 21.678C12.9833 21.475 12.7689 21.327 12.525 21.2563C12.2811 21.1857 12.0208 21.1962 11.7834 21.2862L8.20647 22.6378C5.81083 19.1854 4.69121 15.0069 5.03967 10.8192L8.81316 10.2013C9.06402 10.161 9.29492 10.0401 9.47092 9.85681C9.64691 9.67357 9.75841 9.43797 9.78853 9.18569M13.1358 21.678L12.7355 21.9775L12.7358 21.978C12.6484 21.8618 12.5256 21.7771 12.3859 21.7366C12.246 21.6961 12.0968 21.7021 11.9607 21.7537L11.9601 21.7539L8.38321 23.1055L8.01815 23.2435L7.79568 22.9229C5.33386 19.375 4.18331 15.0811 4.54139 10.7777L4.57375 10.3888L4.95887 10.3257L8.73236 9.70783L8.73389 9.70758C8.87745 9.68453 9.00959 9.61533 9.1103 9.51047C9.211 9.40562 9.2748 9.27082 9.29205 9.12648L9.78853 9.18569M9.78853 9.18569L10.4932 3.27774M9.78853 9.18569L9.29206 9.12641L9.99631 3.22171L10.4932 3.27774M10.4932 3.27774C10.5239 3.00481 10.4585 2.7297 10.3082 2.49984C10.1579 2.26997 9.93202 2.09977 9.66964 2.01858M10.4932 3.27774L9.99668 3.21853L9.99646 3.22038C10.0138 3.06357 9.97611 2.90558 9.88974 2.77351C9.80325 2.64127 9.67339 2.5433 9.5225 2.49644L9.52341 2.49671L9.66964 2.01858M9.66964 2.01858L4.68592 0.494386M9.66964 2.01858L9.52183 2.49623L4.53976 0.972546L4.68592 0.494386" stroke="#5EB701"/>
</svg>
