<svg width="52" height="45" viewBox="0 0 52 45" fill="none" xmlns="http://www.w3.org/2000/svg">
<path d="M47.1786 0H5.39284C2.73101 0 0.571411 2.1596 0.571411 4.82143V40.1786C0.571411 42.8404 2.73101 45 5.39284 45H47.1786C49.8404 45 52 42.8404 52 40.1786V4.82143C52 2.1596 49.8404 0 47.1786 0ZM48.7857 40.1786C48.7857 41.0625 48.0625 41.7857 47.1786 41.7857H5.39284C4.50891 41.7857 3.7857 41.0625 3.7857 40.1786V4.82143C3.7857 3.9375 4.50891 3.21429 5.39284 3.21429H47.1786C48.0625 3.21429 48.7857 3.9375 48.7857 4.82143V40.1786ZM35.587 15.6998L28.7868 22.5L35.587 29.3002C36.0491 29.7623 36.0491 30.5056 35.587 30.9676L34.7533 31.8013C34.2913 32.2634 33.548 32.2634 33.0859 31.8013L26.2857 25.0011L19.4855 31.8013C19.0234 32.2634 18.2801 32.2634 17.8181 31.8013L16.9844 30.9676C16.5223 30.5056 16.5223 29.7623 16.9844 29.3002L23.7846 22.5L16.9844 15.6998C16.5223 15.2377 16.5223 14.4944 16.9844 14.0324L17.8181 13.1987C18.2801 12.7366 19.0234 12.7366 19.4855 13.1987L26.2857 19.9989L33.0859 13.1987C33.548 12.7366 34.2913 12.7366 34.7533 13.1987L35.587 14.0324C36.039 14.4944 36.039 15.2377 35.587 15.6998Z" fill="#98B117"/>
</svg>
