<svg width="46" height="46" viewBox="0 0 46 46" fill="none" xmlns="http://www.w3.org/2000/svg">
<rect width="46" height="46" rx="23" fill="#98B117"/>
<g clip-path="url(#clip0)">
<path d="M30.3125 10H15.6875C15.041 10 14.421 10.2568 13.9639 10.7139C13.5068 11.171 13.25 11.791 13.25 12.4375V33.5625C13.25 34.209 13.5068 34.829 13.9639 35.2861C14.421 35.7432 15.041 36 15.6875 36H30.3125C30.959 36 31.579 35.7432 32.0361 35.2861C32.4932 34.829 32.75 34.209 32.75 33.5625V12.4375C32.75 11.791 32.4932 11.171 32.0361 10.7139C31.579 10.2568 30.959 10 30.3125 10V10ZM31.125 33.5625C31.125 33.778 31.0394 33.9847 30.887 34.137C30.7347 34.2894 30.528 34.375 30.3125 34.375H15.6875C15.472 34.375 15.2653 34.2894 15.113 34.137C14.9606 33.9847 14.875 33.778 14.875 33.5625V19.75H26.25V29.0938C26.25 29.2015 26.2928 29.3048 26.369 29.381C26.4452 29.4572 26.5485 29.5 26.6562 29.5H27.4688C27.5765 29.5 27.6798 29.4572 27.756 29.381C27.8322 29.3048 27.875 29.2015 27.875 29.0938V19.75H31.125V33.5625ZM31.125 18.125H27.875V15.2812C27.875 15.1735 27.8322 15.0702 27.756 14.994C27.6798 14.9178 27.5765 14.875 27.4688 14.875H26.6562C26.5485 14.875 26.4452 14.9178 26.369 14.994C26.2928 15.0702 26.25 15.1735 26.25 15.2812V18.125H14.875V12.4375C14.875 12.222 14.9606 12.0153 15.113 11.863C15.2653 11.7106 15.472 11.625 15.6875 11.625H30.3125C30.528 11.625 30.7347 11.7106 30.887 11.863C31.0394 12.0153 31.125 12.222 31.125 12.4375V18.125Z" fill="white"/>
</g>
<defs>
<clipPath id="clip0">
<rect width="19.5" height="26" fill="white" transform="translate(13.25 10)"/>
</clipPath>
</defs>
</svg>
