<svg width="46" height="46" viewBox="0 0 46 46" fill="none" xmlns="http://www.w3.org/2000/svg">
<rect width="46" height="46" rx="23" fill="#98B117"/>
<g clip-path="url(#clip0)">
<path d="M27.2188 26.3748C27.3856 26.3748 27.5488 26.3253 27.6875 26.2326C27.8263 26.1399 27.9344 26.0081 27.9983 25.8539C28.0621 25.6998 28.0788 25.5301 28.0463 25.3664C28.0137 25.2028 27.9334 25.0524 27.8154 24.9344C27.6974 24.8164 27.547 24.7361 27.3834 24.7035C27.2197 24.671 27.05 24.6877 26.8959 24.7515C26.7417 24.8154 26.6099 24.9235 26.5172 25.0623C26.4245 25.201 26.375 25.3642 26.375 25.5311C26.375 25.7548 26.4639 25.9694 26.6221 26.1277C26.7804 26.2859 26.995 26.3748 27.2188 26.3748ZM28.9062 19.6248C28.7394 19.6248 28.5762 19.6743 28.4375 19.767C28.2987 19.8597 28.1906 19.9915 28.1267 20.1457C28.0629 20.2998 28.0462 20.4695 28.0787 20.6332C28.1113 20.7968 28.1916 20.9472 28.3096 21.0652C28.4276 21.1832 28.578 21.2635 28.7416 21.2961C28.9053 21.3286 29.075 21.3119 29.2291 21.2481C29.3833 21.1842 29.5151 21.0761 29.6078 20.9373C29.7005 20.7986 29.75 20.6354 29.75 20.4686C29.75 20.2448 29.6611 20.0302 29.5029 19.8719C29.3446 19.7137 29.13 19.6248 28.9062 19.6248ZM28.9062 24.6873C29.0731 24.6873 29.2363 24.6378 29.375 24.5451C29.5138 24.4524 29.6219 24.3206 29.6858 24.1664C29.7496 24.0123 29.7663 23.8426 29.7338 23.6789C29.7012 23.5153 29.6209 23.3649 29.5029 23.2469C29.3849 23.1289 29.2345 23.0486 29.0709 23.016C28.9072 22.9835 28.7375 23.0002 28.5834 23.064C28.4292 23.1279 28.2974 23.236 28.2047 23.3748C28.112 23.5135 28.0625 23.6767 28.0625 23.8436C28.0625 24.0673 28.1514 24.2819 28.3096 24.4402C28.4679 24.5984 28.6825 24.6873 28.9062 24.6873ZM27.2188 21.3123C27.0519 21.3123 26.8887 21.3618 26.75 21.4545C26.6112 21.5472 26.5031 21.679 26.4392 21.8332C26.3754 21.9873 26.3587 22.157 26.3912 22.3207C26.4238 22.4843 26.5041 22.6347 26.6221 22.7527C26.7401 22.8707 26.8905 22.951 27.0541 22.9836C27.2178 23.0161 27.3875 22.9994 27.5416 22.9356C27.6958 22.8717 27.8276 22.7636 27.9203 22.6248C28.013 22.4861 28.0625 22.3229 28.0625 22.1561C28.0625 21.9323 27.9736 21.7177 27.8154 21.5594C27.6571 21.4012 27.4425 21.3123 27.2188 21.3123ZM30.5938 22.9998C30.7606 22.9998 30.9238 22.9503 31.0625 22.8576C31.2013 22.7649 31.3094 22.6331 31.3733 22.4789C31.4371 22.3248 31.4538 22.1551 31.4213 21.9914C31.3887 21.8278 31.3084 21.6774 31.1904 21.5594C31.0724 21.4414 30.922 21.3611 30.7584 21.3285C30.5947 21.296 30.425 21.3127 30.2709 21.3765C30.1167 21.4404 29.9849 21.5485 29.8922 21.6873C29.7995 21.826 29.75 21.9892 29.75 22.1561C29.75 22.3798 29.8389 22.5944 29.9971 22.7527C30.1554 22.9109 30.37 22.9998 30.5938 22.9998ZM32.2812 21.3123C32.4481 21.3123 32.6113 21.2628 32.75 21.1701C32.8888 21.0774 32.9969 20.9456 33.0608 20.7914C33.1246 20.6373 33.1413 20.4676 33.1088 20.3039C33.0762 20.1403 32.9959 19.9899 32.8779 19.8719C32.7599 19.7539 32.6095 19.6736 32.4459 19.641C32.2822 19.6085 32.1125 19.6252 31.9584 19.689C31.8042 19.7529 31.6724 19.861 31.5797 19.9998C31.487 20.1385 31.4375 20.3017 31.4375 20.4686C31.4375 20.6923 31.5264 20.9069 31.6846 21.0652C31.8429 21.2234 32.0575 21.3123 32.2812 21.3123ZM25.5312 22.9998C25.3644 22.9998 25.2012 23.0493 25.0625 23.142C24.9237 23.2347 24.8156 23.3665 24.7517 23.5207C24.6879 23.6748 24.6712 23.8445 24.7037 24.0082C24.7363 24.1718 24.8166 24.3222 24.9346 24.4402C25.0526 24.5582 25.203 24.6385 25.3666 24.6711C25.5303 24.7036 25.7 24.6869 25.8541 24.6231C26.0083 24.5592 26.1401 24.4511 26.2328 24.3123C26.3255 24.1736 26.375 24.0104 26.375 23.8436C26.375 23.6198 26.2861 23.4052 26.1279 23.2469C25.9696 23.0887 25.755 22.9998 25.5312 22.9998ZM25.5312 26.3748C25.3644 26.3748 25.2012 26.4243 25.0625 26.517C24.9237 26.6097 24.8156 26.7415 24.7517 26.8957C24.6879 27.0498 24.6712 27.2195 24.7037 27.3832C24.7363 27.5468 24.8166 27.6972 24.9346 27.8152C25.0526 27.9332 25.203 28.0135 25.3666 28.0461C25.5303 28.0786 25.7 28.0619 25.8541 27.9981C26.0083 27.9342 26.1401 27.8261 26.2328 27.6873C26.3255 27.5486 26.375 27.3854 26.375 27.2186C26.375 26.9948 26.2861 26.7802 26.1279 26.6219C25.9696 26.4637 25.755 26.3748 25.5312 26.3748ZM25.5312 29.7498C25.3644 29.7498 25.2012 29.7993 25.0625 29.892C24.9237 29.9847 24.8156 30.1165 24.7517 30.2707C24.6879 30.4248 24.6712 30.5945 24.7037 30.7582C24.7363 30.9218 24.8166 31.0722 24.9346 31.1902C25.0526 31.3082 25.203 31.3885 25.3666 31.4211C25.5303 31.4536 25.7 31.4369 25.8541 31.3731C26.0083 31.3092 26.1401 31.2011 26.2328 31.0623C26.3255 30.9236 26.375 30.7604 26.375 30.5936C26.375 30.3698 26.2861 30.1552 26.1279 29.9969C25.9696 29.8387 25.755 29.7498 25.5312 29.7498ZM32.2812 22.9998C32.1144 22.9998 31.9512 23.0493 31.8125 23.142C31.6737 23.2347 31.5656 23.3665 31.5017 23.5207C31.4379 23.6748 31.4212 23.8445 31.4537 24.0082C31.4863 24.1718 31.5666 24.3222 31.6846 24.4402C31.8026 24.5582 31.953 24.6385 32.1166 24.6711C32.2803 24.7036 32.45 24.6869 32.6041 24.6231C32.7583 24.5592 32.8901 24.4511 32.9828 24.3123C33.0755 24.1736 33.125 24.0104 33.125 23.8436C33.125 23.6198 33.0361 23.4052 32.8779 23.2469C32.7196 23.0887 32.505 22.9998 32.2812 22.9998ZM29.6266 15.0179L29.0296 14.421C28.9505 14.3419 28.8433 14.2975 28.7314 14.2975C28.6196 14.2975 28.5123 14.3419 28.4332 14.421L28.1216 14.7326C27.1363 13.6735 25.7922 13.0188 24.3509 12.8959C22.9096 12.773 21.4741 13.1907 20.3237 14.0677L19.0876 12.8326C18.3022 12.0471 17.3014 11.5121 16.2118 11.2954C15.1223 11.0787 13.993 11.19 12.9667 11.6151C11.9404 12.0403 11.0633 12.7603 10.4462 13.684C9.8291 14.6077 9.49983 15.6937 9.5 16.8046V34.3904C9.5 34.5023 9.54445 34.6096 9.62356 34.6887C9.70268 34.7679 9.80999 34.8123 9.92188 34.8123H10.7656C10.8775 34.8123 10.9848 34.7679 11.0639 34.6887C11.1431 34.6096 11.1875 34.5023 11.1875 34.3904V16.8046C11.1873 16.0274 11.4176 15.2676 11.8493 14.6213C12.2809 13.975 12.8946 13.4713 13.6126 13.1739C14.3306 12.8764 15.1207 12.7986 15.883 12.9503C16.6452 13.102 17.3453 13.4763 17.8948 14.026L19.1304 15.261C18.2534 16.4114 17.8357 17.8469 17.9586 19.2882C18.0815 20.7295 18.7362 22.0736 19.7953 23.0589L19.4837 23.3689C19.4046 23.4481 19.3602 23.5553 19.3602 23.6672C19.3602 23.779 19.4046 23.8863 19.4837 23.9654L20.0806 24.5623C20.1597 24.6414 20.267 24.6858 20.3788 24.6858C20.4907 24.6858 20.5979 24.6414 20.6771 24.5623L29.6266 15.617C29.6661 15.5778 29.6975 15.5311 29.7189 15.4797C29.7404 15.4283 29.7514 15.3732 29.7514 15.3175C29.7514 15.2618 29.7404 15.2066 29.7189 15.1552C29.6975 15.1038 29.6661 15.0571 29.6266 15.0179ZM20.9961 21.8576C20.5656 21.4688 20.2212 20.9942 19.985 20.4644C19.7489 19.9345 19.6263 19.3611 19.625 18.7811C19.6263 17.6626 20.0711 16.5902 20.862 15.7993C21.6529 15.0084 22.7253 14.5636 23.8438 14.5623C24.4238 14.5636 24.9972 14.6862 25.5271 14.9224C26.0569 15.1585 26.5315 15.5029 26.9203 15.9334L20.9961 21.8576ZM35.6562 19.6248C35.4894 19.6248 35.3262 19.6743 35.1875 19.767C35.0487 19.8597 34.9406 19.9915 34.8767 20.1457C34.8129 20.2998 34.7962 20.4695 34.8287 20.6332C34.8613 20.7968 34.9416 20.9472 35.0596 21.0652C35.1776 21.1832 35.328 21.2635 35.4916 21.2961C35.6553 21.3286 35.825 21.3119 35.9791 21.2481C36.1333 21.1842 36.2651 21.0761 36.3578 20.9373C36.4505 20.7986 36.5 20.6354 36.5 20.4686C36.5 20.2448 36.4111 20.0302 36.2529 19.8719C36.0946 19.7137 35.88 19.6248 35.6562 19.6248ZM33.9688 21.3123C33.8019 21.3123 33.6387 21.3618 33.5 21.4545C33.3612 21.5472 33.2531 21.679 33.1892 21.8332C33.1254 21.9873 33.1087 22.157 33.1412 22.3207C33.1738 22.4843 33.2541 22.6347 33.3721 22.7527C33.4901 22.8707 33.6405 22.951 33.8041 22.9836C33.9678 23.0161 34.1375 22.9994 34.2916 22.9356C34.4458 22.8717 34.5776 22.7636 34.6703 22.6248C34.763 22.4861 34.8125 22.3229 34.8125 22.1561C34.8125 21.9323 34.7236 21.7177 34.5654 21.5594C34.4071 21.4012 34.1925 21.3123 33.9688 21.3123ZM27.2188 28.0623C27.0519 28.0623 26.8887 28.1118 26.75 28.2045C26.6112 28.2972 26.5031 28.429 26.4392 28.5832C26.3754 28.7373 26.3587 28.907 26.3912 29.0707C26.4238 29.2343 26.5041 29.3847 26.6221 29.5027C26.7401 29.6207 26.8905 29.701 27.0541 29.7336C27.2178 29.7661 27.3875 29.7494 27.5416 29.6856C27.6958 29.6217 27.8276 29.5136 27.9203 29.3748C28.013 29.2361 28.0625 29.0729 28.0625 28.9061C28.0625 28.6823 27.9736 28.4677 27.8154 28.3094C27.6571 28.1512 27.4425 28.0623 27.2188 28.0623ZM28.9062 26.3748C28.7394 26.3748 28.5762 26.4243 28.4375 26.517C28.2987 26.6097 28.1906 26.7415 28.1267 26.8957C28.0629 27.0498 28.0462 27.2195 28.0787 27.3832C28.1113 27.5468 28.1916 27.6972 28.3096 27.8152C28.4276 27.9332 28.578 28.0135 28.7416 28.0461C28.9053 28.0786 29.075 28.0619 29.2291 27.9981C29.3833 27.9342 29.5151 27.8261 29.6078 27.6873C29.7005 27.5486 29.75 27.3854 29.75 27.2186C29.75 26.9948 29.6611 26.7802 29.5029 26.6219C29.3446 26.4637 29.13 26.3748 28.9062 26.3748ZM30.5938 24.6873C30.4269 24.6873 30.2637 24.7368 30.125 24.8295C29.9862 24.9222 29.8781 25.054 29.8142 25.2082C29.7504 25.3623 29.7337 25.532 29.7662 25.6957C29.7988 25.8593 29.8791 26.0097 29.9971 26.1277C30.1151 26.2457 30.2655 26.326 30.4291 26.3586C30.5928 26.3911 30.7625 26.3744 30.9166 26.3106C31.0708 26.2467 31.2026 26.1386 31.2953 25.9998C31.388 25.8611 31.4375 25.6979 31.4375 25.5311C31.4375 25.3073 31.3486 25.0927 31.1904 24.9344C31.0321 24.7762 30.8175 24.6873 30.5938 24.6873Z" fill="white"/>
</g>
<defs>
<clipPath id="clip0">
<rect width="27" height="27" fill="white" transform="translate(9.5 9.5)"/>
</clipPath>
</defs>
</svg>
