<svg width="46" height="46" viewBox="0 0 46 46" fill="none" xmlns="http://www.w3.org/2000/svg">
<rect width="46" height="46" rx="23" fill="#98B117"/>
<g clip-path="url(#clip0)">
<path d="M31.7909 27.0869L34.6142 26.3328C34.8392 26.2748 34.9731 26.0428 34.9142 25.816L34.6945 24.9986C34.6356 24.7719 34.3999 24.64 34.1749 24.698L29.7177 25.8898L24.6927 23L29.7177 20.1102L34.1749 21.302C34.3999 21.36 34.6356 21.2281 34.6945 21.0014L34.9142 20.184C34.9731 19.9572 34.8392 19.7252 34.6142 19.6672L31.7909 18.9131L34.7856 17.1887C34.9892 17.0727 35.0588 16.8143 34.9409 16.6139L34.5177 15.8809C34.3999 15.6805 34.1427 15.6119 33.9392 15.7279L30.9445 17.4523L31.6999 14.6416C31.7588 14.4148 31.6249 14.1828 31.3999 14.1248L30.5802 13.9086C30.3552 13.8506 30.1195 13.9824 30.0606 14.2092L28.8659 18.6494L23.8409 21.5393V15.7543L27.1088 12.5059C27.2749 12.3424 27.2749 12.0734 27.1088 11.91L26.5088 11.3141C26.3427 11.1506 26.0749 11.1506 25.9088 11.3141L23.8409 13.3707V9.92188C23.8409 9.68984 23.6534 9.5 23.4177 9.5H22.5713C22.3356 9.5 22.1481 9.68984 22.1481 9.92188V13.3707L20.0802 11.3141C19.9142 11.1506 19.6463 11.1506 19.4802 11.3141L18.8802 11.91C18.7142 12.0734 18.7142 12.3424 18.8802 12.5059L22.1427 15.7596V21.5445L17.1177 18.6547L15.9338 14.2039C15.8749 13.9771 15.6392 13.8453 15.4142 13.9033L14.5945 14.1195C14.3695 14.1775 14.2356 14.4096 14.2945 14.6363L15.0499 17.4471L12.0552 15.7227C11.8517 15.6066 11.5945 15.6752 11.4767 15.8756L11.0534 16.6086C10.9356 16.809 11.0052 17.0674 11.2088 17.1834L14.2034 18.9078L11.3856 19.6672C11.1606 19.7252 11.0267 19.9572 11.0856 20.184L11.3052 21.0014C11.3642 21.2281 11.5999 21.36 11.8249 21.302L16.282 20.1102L21.307 23L16.282 25.8898L11.8249 24.698C11.5999 24.64 11.3642 24.7719 11.3052 24.9986L11.0856 25.816C11.0267 26.0428 11.1606 26.2748 11.3856 26.3328L14.2088 27.0869L11.2142 28.8061C11.0106 28.9221 10.9409 29.1805 11.0588 29.3809L11.482 30.1139C11.5999 30.3143 11.857 30.3828 12.0606 30.2668L15.0552 28.5424L14.2999 31.3531C14.2409 31.5799 14.3749 31.8119 14.5999 31.8699L15.4195 32.0861C15.6445 32.1441 15.8802 32.0123 15.9392 31.7855L17.1338 27.3453L22.1588 24.4555V30.2404L18.8909 33.4941C18.7249 33.6576 18.7249 33.9266 18.8909 34.09L19.4909 34.6859C19.657 34.8494 19.9249 34.8494 20.0909 34.6859L22.1588 32.6293V36.0781C22.1588 36.3102 22.3463 36.5 22.582 36.5H23.4284C23.6642 36.5 23.8517 36.3102 23.8517 36.0781V32.6293L25.9195 34.6859C26.0856 34.8494 26.3534 34.8494 26.5195 34.6859L27.1195 34.09C27.2856 33.9266 27.2856 33.6576 27.1195 33.4941L23.857 30.2404V24.4607L28.882 27.3506L30.0767 31.7908C30.1356 32.0176 30.3713 32.1494 30.5963 32.0914L31.4159 31.8752C31.6409 31.8172 31.7749 31.5852 31.7159 31.3584L30.9606 28.5477L33.9552 30.2721C34.1588 30.3881 34.4159 30.3195 34.5338 30.1191L34.957 29.3861C35.0749 29.1857 35.0052 28.9273 34.8017 28.8113L31.7909 27.0869Z" fill="white"/>
</g>
<defs>
<clipPath id="clip0">
<rect width="24" height="27" fill="white" transform="translate(11 9.5)"/>
</clipPath>
</defs>
</svg>
