<svg width="21" height="24" viewBox="0 0 21 24" fill="none" xmlns="http://www.w3.org/2000/svg">
<g clip-path="url(#clip0)">
<path d="M18.1905 16.414V7.58598C19.4209 7.26523 20.3334 6.15072 20.3334 4.8125C20.3334 3.22451 19.0544 1.9375 17.4763 1.9375C16.1463 1.9375 15.0388 2.85615 14.72 4.09375H5.94678C5.62803 2.85615 4.52043 1.9375 3.19052 1.9375C1.61239 1.9375 0.333374 3.22451 0.333374 4.8125C0.333374 6.15072 1.24588 7.26523 2.47623 7.58598V16.4145C1.24588 16.7348 0.333374 17.8493 0.333374 19.1875C0.333374 20.7755 1.61239 22.0625 3.19052 22.0625C4.52043 22.0625 5.62803 21.1443 5.94678 19.9062H14.7204C15.0392 21.1443 16.1468 22.0625 17.4767 22.0625C19.0548 22.0625 20.3339 20.7755 20.3339 19.1875C20.3334 17.8493 19.4209 16.7348 18.1905 16.414ZM14.72 18.4688H5.94678C5.68785 17.4621 4.9057 16.675 3.90481 16.414V7.58598C4.90526 7.32543 5.6874 6.5384 5.94678 5.53125H14.7204C14.9794 6.53795 15.7615 7.32498 16.7624 7.58598V16.4145C15.7615 16.675 14.9794 17.4621 14.72 18.4688ZM17.4763 3.375C18.2638 3.375 18.9048 4.02008 18.9048 4.8125C18.9048 5.60492 18.2638 6.25 17.4763 6.25C16.6888 6.25 16.0477 5.60492 16.0477 4.8125C16.0477 4.02008 16.6888 3.375 17.4763 3.375ZM1.76195 4.8125C1.76195 4.02008 2.40302 3.375 3.19052 3.375C3.97802 3.375 4.61909 4.02008 4.61909 4.8125C4.61909 5.60492 3.97802 6.25 3.19052 6.25C2.40302 6.25 1.76195 5.60492 1.76195 4.8125ZM3.19052 20.625C2.40302 20.625 1.76195 19.9799 1.76195 19.1875C1.76195 18.3951 2.40302 17.75 3.19052 17.75C3.97802 17.75 4.61909 18.3951 4.61909 19.1875C4.61909 19.9799 3.97802 20.625 3.19052 20.625ZM17.4763 20.625C16.6888 20.625 16.0477 19.9799 16.0477 19.1875C16.0477 18.3951 16.6888 17.75 17.4763 17.75C18.2638 17.75 18.9048 18.3951 18.9048 19.1875C18.9048 19.9799 18.2638 20.625 17.4763 20.625Z" fill="#98B117"/>
</g>
<defs>
<clipPath id="clip0">
<rect width="20" height="23" fill="white" transform="translate(0.333374 0.5)"/>
</clipPath>
</defs>
</svg>
