<svg width="46" height="46" viewBox="0 0 46 46" fill="none" xmlns="http://www.w3.org/2000/svg">
<rect width="46" height="46" rx="23" fill="#98B117"/>
<g clip-path="url(#clip0)">
<path d="M35.3103 11H10.6896C10.1135 11 9.5609 11.2371 9.1535 11.659C8.74609 12.081 8.51721 12.6533 8.51721 13.25V28.25C8.51721 28.8467 8.74609 29.419 9.1535 29.841C9.5609 30.2629 10.1135 30.5 10.6896 30.5H22.2758V33.5H14.6724C14.5764 33.5 14.4843 33.5395 14.4164 33.6098C14.3485 33.6802 14.3103 33.7755 14.3103 33.875V34.625C14.3103 34.7245 14.3485 34.8198 14.4164 34.8902C14.4843 34.9605 14.5764 35 14.6724 35H31.3276C31.4236 35 31.5157 34.9605 31.5836 34.8902C31.6515 34.8198 31.6896 34.7245 31.6896 34.625V33.875C31.6896 33.7755 31.6515 33.6802 31.5836 33.6098C31.5157 33.5395 31.4236 33.5 31.3276 33.5H23.7241V30.5H35.3103C35.8865 30.5 36.439 30.2629 36.8464 29.841C37.2538 29.419 37.4827 28.8467 37.4827 28.25V13.25C37.4827 12.6533 37.2538 12.081 36.8464 11.659C36.439 11.2371 35.8865 11 35.3103 11V11ZM36.0345 28.25C36.0345 28.4489 35.9582 28.6397 35.8224 28.7803C35.6866 28.921 35.5024 29 35.3103 29H10.6896C10.4976 29 10.3134 28.921 10.1776 28.7803C10.0418 28.6397 9.96549 28.4489 9.96549 28.25V13.25C9.96549 13.0511 10.0418 12.8603 10.1776 12.7197C10.3134 12.579 10.4976 12.5 10.6896 12.5H35.3103C35.5024 12.5 35.6866 12.579 35.8224 12.7197C35.9582 12.8603 36.0345 13.0511 36.0345 13.25V28.25Z" fill="white"/>
</g>
<defs>
<clipPath id="clip0">
<rect width="28.9655" height="24" fill="white" transform="translate(8.51721 11)"/>
</clipPath>
</defs>
</svg>
