<svg width="23" height="23" viewBox="0 0 23 23" fill="none" xmlns="http://www.w3.org/2000/svg">
<path d="M19.7025 3.65098C17.6449 1.58848 14.9047 0.454102 11.9926 0.454102C5.98193 0.454102 1.09086 5.34517 1.09086 11.3559C1.09086 13.276 1.59176 15.1519 2.54443 16.8068L0.997559 22.4541L6.77747 20.9367C8.36854 21.8059 10.161 22.2626 11.9877 22.2626H11.9926C17.9985 22.2626 22.9976 17.3715 22.9976 11.3608C22.9976 8.44874 21.7601 5.71348 19.7025 3.65098ZM11.9926 20.426C10.3623 20.426 8.76631 19.9889 7.37658 19.1639L7.04756 18.9675L3.61988 19.8662L4.53327 16.522L4.3172 16.1782C3.40872 14.7345 2.93238 13.0697 2.93238 11.3559C2.93238 6.36169 6.99845 2.29562 11.9976 2.29562C14.4185 2.29562 16.6922 3.23848 18.4011 4.95232C20.1101 6.66615 21.161 8.93982 21.156 11.3608C21.156 16.3599 16.9868 20.426 11.9926 20.426ZM16.9623 13.6394C16.6922 13.5019 15.3516 12.8438 15.1011 12.7554C14.8507 12.6621 14.669 12.6179 14.4873 12.8929C14.3056 13.1679 13.7851 13.7769 13.623 13.9635C13.4659 14.1452 13.3038 14.1697 13.0337 14.0322C11.4328 13.2318 10.3819 12.6032 9.32613 10.7912C9.04622 10.3099 9.60604 10.3443 10.1266 9.30321C10.215 9.12151 10.1708 8.96437 10.102 8.82687C10.0333 8.68937 9.48818 7.34874 9.26229 6.80366C9.04131 6.2733 8.81542 6.34696 8.64845 6.33714C8.49131 6.32732 8.30961 6.32732 8.12792 6.32732C7.94622 6.32732 7.65158 6.39607 7.40113 6.66615C7.15068 6.94115 6.44845 7.59919 6.44845 8.93982C6.44845 10.2804 7.42568 11.5769 7.55827 11.7586C7.69577 11.9403 9.47836 14.6903 12.2136 15.8737C13.9422 16.6202 14.6199 16.684 15.4842 16.5563C16.0096 16.4778 17.0949 15.8983 17.3208 15.2599C17.5467 14.6215 17.5467 14.0764 17.4779 13.9635C17.4141 13.8407 17.2324 13.772 16.9623 13.6394Z" fill="#98B117"/>
</svg>
